<svg id="f6432a23-887a-40ba-972d-604c6117c0ef" data-name="Слой 3" xmlns="http://www.w3.org/2000/svg" viewBox="0 0 2000 300"><defs><style>.f29a0e36-4311-4326-a609-349bce5179f0{fill:none;stroke:#d1c4e9;stroke-miterlimit:10;stroke-width:2px;}.e93d222c-6f02-4b86-a542-7fbdc43c8ad4{fill:#6200ea;}</style></defs><ellipse class="f29a0e36-4311-4326-a609-349bce5179f0" cx="1822.57" cy="-239.97" rx="285.03" ry="334.25" transform="translate(1985.61 1591.09) rotate(-87.59)"/><ellipse class="f29a0e36-4311-4326-a609-349bce5179f0" cx="1744.94" cy="-199.47" rx="415.92" ry="331.35" transform="translate(3.6 29.3) rotate(-0.96)"/><ellipse class="f29a0e36-4311-4326-a609-349bce5179f0" cx="1667.31" cy="-158.97" rx="500.08" ry="378.79" transform="translate(5.14 46.87) rotate(-1.61)"/><ellipse class="f29a0e36-4311-4326-a609-349bce5179f0" cx="1589.68" cy="-118.48" rx="585.55" ry="427.12" transform="translate(3.98 44.85) rotate(-1.62)"/><ellipse class="f29a0e36-4311-4326-a609-349bce5179f0" cx="1512.05" cy="-77.98" rx="671.83" ry="476.07" transform="translate(2.44 38.03) rotate(-1.44)"/><ellipse class="f29a0e36-4311-4326-a609-349bce5179f0" cx="1434.42" cy="-37.48" rx="758.65" ry="525.47" transform="translate(1.12 30.51) rotate(-1.22)"/><ellipse class="f29a0e36-4311-4326-a609-349bce5179f0" cx="1356.78" cy="3.02" rx="845.85" ry="575.19" transform="translate(0.15 23.57) rotate(-1)"/><ellipse class="f29a0e36-4311-4326-a609-349bce5179f0" cx="1279.15" cy="43.51" rx="933.32" ry="625.14" transform="translate(-0.48 17.54) rotate(-0.79)"/><ellipse class="f29a0e36-4311-4326-a609-349bce5179f0" cx="1201.52" cy="84.01" rx="1021" ry="675.28" transform="translate(-0.81 12.46) rotate(-0.59)"/><ellipse class="f29a0e36-4311-4326-a609-349bce5179f0" cx="1123.89" cy="124.51" rx="1108.83" ry="725.56" transform="translate(-0.89 8.27) rotate(-0.42)"/><ellipse class="f29a0e36-4311-4326-a609-349bce5179f0" cx="1046.26" cy="165.01" rx="1196.79" ry="775.96" transform="translate(-0.75 4.86) rotate(-0.27)"/><ellipse class="f29a0e36-4311-4326-a609-349bce5179f0" cx="968.63" cy="205.5" rx="1284.86" ry="826.44" transform="translate(-0.45 2.13) rotate(-0.13)"/><ellipse class="f29a0e36-4311-4326-a609-349bce5179f0" cx="891" cy="246" rx="1373" ry="877"/><path class="e93d222c-6f02-4b86-a542-7fbdc43c8ad4" d="M841.67,167.57v-42.7h5.13v19h20v-19h5.12v42.7h-5.12v-19.1h-20v19.1Z"/><path class="e93d222c-6f02-4b86-a542-7fbdc43c8ad4" d="M895.54,168.42a15.89,15.89,0,0,1-7.93-1.92,13.4,13.4,0,0,1-5.31-5.4,16.59,16.59,0,0,1-1.89-8v-.73a16.76,16.76,0,0,1,1.89-8.12,13.55,13.55,0,0,1,5.25-5.39,16.26,16.26,0,0,1,15.12-.13,12.73,12.73,0,0,1,5.07,5.16,16.2,16.2,0,0,1,1.83,7.87v2.19H885.23a10,10,0,0,0,10.43,10.25,8.88,8.88,0,0,0,5.92-1.77,11.87,11.87,0,0,0,3.17-4.21l4.15,2a18.08,18.08,0,0,1-2.53,3.78,13.11,13.11,0,0,1-4.21,3.17A15,15,0,0,1,895.54,168.42Zm-10.25-18.48h19.4a9,9,0,0,0-2.84-6.47,9.58,9.58,0,0,0-6.62-2.32,9.8,9.8,0,0,0-6.71,2.32A10.3,10.3,0,0,0,885.29,149.94Z"/><path class="e93d222c-6f02-4b86-a542-7fbdc43c8ad4" d="M918,167.57v-42.7h4.81v42.7Z"/><path class="e93d222c-6f02-4b86-a542-7fbdc43c8ad4" d="M932.93,167.57v-42.7h4.82v42.7Z"/><path class="e93d222c-6f02-4b86-a542-7fbdc43c8ad4" d="M961.66,168.42a16.29,16.29,0,0,1-8-1.89,13.4,13.4,0,0,1-5.37-5.34,16.44,16.44,0,0,1-1.92-8.14v-.79a16.55,16.55,0,0,1,1.92-8.12,13.38,13.38,0,0,1,5.37-5.36,17.62,17.62,0,0,1,15.92,0,13.38,13.38,0,0,1,5.37,5.36,16.55,16.55,0,0,1,1.92,8.12v.79a16.44,16.44,0,0,1-1.92,8.14,13.4,13.4,0,0,1-5.37,5.34A16.29,16.29,0,0,1,961.66,168.42Zm0-4.33a9.93,9.93,0,0,0,7.59-3,11.37,11.37,0,0,0,2.84-8.14v-.55a11.36,11.36,0,0,0-2.84-8.14,11,11,0,0,0-15.15,0,11.28,11.28,0,0,0-2.87,8.14v.55a11.3,11.3,0,0,0,2.87,8.14A10,10,0,0,0,961.66,164.09Z"/><path class="e93d222c-6f02-4b86-a542-7fbdc43c8ad4" d="M1005,167.57l-7-42.7h5.12l6,39.4h.85l7.87-39.4h9.15l7.81,39.4h.85l6-39.4h5.13l-7,42.7h-9.15l-7.87-39.65h-.85l-7.87,39.65Z"/><path class="e93d222c-6f02-4b86-a542-7fbdc43c8ad4" d="M1067.13,168.42a16.29,16.29,0,0,1-8-1.89,13.4,13.4,0,0,1-5.37-5.34,16.44,16.44,0,0,1-1.92-8.14v-.79a16.55,16.55,0,0,1,1.92-8.12,13.38,13.38,0,0,1,5.37-5.36,17.62,17.62,0,0,1,15.92,0,13.38,13.38,0,0,1,5.37,5.36,16.55,16.55,0,0,1,1.92,8.12v.79a16.44,16.44,0,0,1-1.92,8.14,13.4,13.4,0,0,1-5.37,5.34A16.29,16.29,0,0,1,1067.13,168.42Zm0-4.33a9.93,9.93,0,0,0,7.59-3,11.37,11.37,0,0,0,2.84-8.14v-.55a11.36,11.36,0,0,0-2.84-8.14,11,11,0,0,0-15.15,0,11.28,11.28,0,0,0-2.87,8.14v.55a11.3,11.3,0,0,0,2.87,8.14A10,10,0,0,0,1067.13,164.09Z"/><path class="e93d222c-6f02-4b86-a542-7fbdc43c8ad4" d="M1091,167.57V137.74h4.7v3.66h.85a5.53,5.53,0,0,1,2.44-2.87,8.9,8.9,0,0,1,4.33-.91h3.54V142h-3.84a7.46,7.46,0,0,0-5.22,1.8q-2,1.8-2,5.58v18.18Z"/><path class="e93d222c-6f02-4b86-a542-7fbdc43c8ad4" d="M1114,167.57v-42.7h4.82v42.7Z"/><path class="e93d222c-6f02-4b86-a542-7fbdc43c8ad4" d="M1141.61,168.42a14.15,14.15,0,0,1-7.08-1.83,13.18,13.18,0,0,1-5.12-5.31,17,17,0,0,1-1.89-8.23v-.79a16.82,16.82,0,0,1,1.89-8.21,13.47,13.47,0,0,1,5.09-5.3,13.83,13.83,0,0,1,7.11-1.87,14.93,14.93,0,0,1,5.28.83,10.64,10.64,0,0,1,3.5,2.07,9.94,9.94,0,0,1,2.08,2.66h.85V124.87h4.82v42.7h-4.7v-4.94h-.85a11.73,11.73,0,0,1-3.78,4A12.56,12.56,0,0,1,1141.61,168.42Zm1.28-4.27a10,10,0,0,0,7.53-3c1.94-2,2.9-4.72,2.9-8.26v-.55c0-3.54-1-6.29-2.9-8.27a10.08,10.08,0,0,0-7.53-3,10.2,10.2,0,0,0-7.53,3c-2,2-3,4.73-3,8.27v.55c0,3.54,1,6.29,3,8.26A10.16,10.16,0,0,0,1142.89,164.15Z"/></svg>